<?xml version="1.0" encoding="UTF-8"?>
<svg id="Calque_2" data-name="Calque 2" xmlns="http://www.w3.org/2000/svg" viewBox="0 0 259.21 138.53">
  <defs>
    <style>
      .cls-1 {
        letter-spacing: -.08em;
      }

      .cls-2 {
        fill: #ef7d53;
      }

      .cls-2, .cls-3, .cls-4 {
        stroke-width: 0px;
      }

      .cls-5 {
        fill: #fff;
        stroke: #000;
        stroke-linejoin: round;
        stroke-width: .75px;
      }

      .cls-6 {
        font-size: 82.91px;
      }

      .cls-6, .cls-7, .cls-4 {
        fill: #1d1d1b;
      }

      .cls-3 {
        fill: #d36b49;
      }

      .cls-7 {
        stroke: #1d1d1b;
      }

      .cls-7, .cls-8 {
        stroke-miterlimit: 10;
      }

      .cls-8 {
        fill: none;
        stroke: #ef7d53;
        stroke-width: 3px;
      }
    </style>
  </defs>
  <g id="Calque_1-2" data-name="Calque 1">
    <g>
      <text class="cls-6" transform="translate(212.53 76.77)"><tspan x="0" y="0">e</tspan></text>
      <text class="cls-6" transform="translate(0 75.32)"><tspan class="cls-1" x="0" y="0">T</tspan><tspan x="49.33" y="0">u</tspan></text>
      <g>
        <path class="cls-8" d="m202.64,48.66c0-26.54-20.96-47.16-44.27-47.16s-42.21,19.86-42.21,46.39"/>
        <g>
          <rect class="cls-3" x="112.41" y="47.37" width="9.97" height="17.82" rx="2.99" ry="2.99"/>
          <rect class="cls-2" x="118.25" y="39.96" width="14.17" height="32.65" rx="4.25" ry="4.25"/>
          <rect class="cls-7" x="125.34" y="35.8" width="17.25" height="40.96" rx="5.18" ry="5.18"/>
        </g>
        <rect class="cls-4" x="195.8" y="71.09" width="3.16" height="8.47" transform="translate(-7.75 24.77) rotate(-7.04)"/>
        <g>
          <rect class="cls-3" x="196.45" y="47.37" width="9.97" height="17.82" rx="2.99" ry="2.99" transform="translate(402.87 112.57) rotate(-180)"/>
          <rect class="cls-2" x="186.4" y="39.96" width="14.17" height="32.65" rx="4.25" ry="4.25" transform="translate(386.97 112.57) rotate(-180)"/>
          <rect class="cls-7" x="176.24" y="35.8" width="17.25" height="40.96" rx="5.18" ry="5.18" transform="translate(369.73 112.57) rotate(180)"/>
        </g>
      </g>
      <path class="cls-4" d="m80.89,115.57c11.25.8,25.58-11.5,27.31-22.53,0,0,.02-.17.02-.17v-.09c0-.11-.03-.16.01-.1.05.07.15.08.1.07-.43.06-.99.78-1.18,1.36-2.9,7.08-1,31.1,6.57,34.83,3.12,1.91,7.13,2.51,10.69,1.59,7.74-1.87,9-11.98,10.25-18.67.57-3.86.9-7.76,1.01-11.66.04-1.94.05-3.92-.14-5.78-.08-.55-.14-1.04-.45-1.33-.02,0,.15.02.16-.01-.89,2.3-.06,5.17.64,7.57,2.37,7.55,7.16,14.01,9.78,21.5,1.43,4.89,1.54,10.19.44,15.15-.12.29-.27.61-.64.93-.35.34-1.15.42-1.56.14-1.22-.82-1.35-1.93-1.69-3.08-.86-3.41-1.05-6.97-1.02-10.47.17-9.35,2.69-27.35,9.07-34.3,13.7-12.57,40.42,22.4,2.51,23.92-1.58.17-3.16-.22-4.6-.8-.44-.18-1.18-.45-1.51-1.28-.3-.77.17-1.62.77-2.02,3.19-1.99,7.22-.78,10.63-.26,5.78,1.11,11.46,2.76,17.34,2.57,7.62-.79,15.4-3.24,21.86-7.41,5.77-3.66,5.33-9.4,2.56-14.91-1.66-3.6-3.05-7.6-2.66-11.66,0,0,1.15.09,1.15.09-.36,3.9.98,7.58,2.59,11.1,1.71,3.57,3.09,7.99,1.23,11.83-3.34,6.42-14.11,9.56-20.72,11.28-7.8,2.25-15.92-.06-23.59-1.6-2.17-.38-8.82-1.81-9.89.55.03.29,1.26.7,2.08.94.89.27,1.8.33,2.71.25,6.7-.43,17.3-1.71,18.17-9.99.13-5.66-4.45-10.68-9.4-12.9-9.25-3.88-12.97,3.98-15.16,11.55-2.2,7.47-3.46,15.29-3.57,23.08,0,3.81.18,7.74,1.39,11.36.14.37.42.75.52.78.05-.01-.2,0-.18.02.01,0,.11-.13.17-.29.9-4.5.84-9.64-.52-14.08-1.9-5.53-5.23-10.49-7.6-15.89-1.49-3.25-5.3-12.22-2.15-15.1,3.81-1.56,2.91,6.61,3.01,8.61-.29,7.97-1.04,15.97-3.87,23.53-1.35,3.88-4.43,7.6-8.63,8.49-4.08,1.05-8.48.4-12.09-1.78-6.69-3.94-7.78-15.02-8.58-22.07-.22-3.85-1.13-16.91,4.1-17.58,1.23-.07,1.98,1.1,1.83,2.2,0,0-.03.2-.03.2l-.05.39c-.83,5.36-4.17,10.02-7.78,13.84-5.66,5.7-13.13,10.56-21.54,10.09,0,0,.17-1.99.17-1.99h0Z"/>
      <g>
        <path class="cls-5" d="m71.33,112.59v1.48s0,5.31,0,5.31c5.58.13,10.78.61,10.78-3.36,0-3.6-3.36-3.3-10.78-3.43Z"/>
        <g>
          <polygon class="cls-5" points="63.65 113.98 63.65 117.95 71.33 118.08 71.33 113.98 63.65 113.98"/>
          <line class="cls-5" x1="68.71" y1="113.98" x2="68.71" y2="118.08"/>
          <line class="cls-5" x1="66.13" y1="117.99" x2="66.13" y2="113.98"/>
          <polygon class="cls-5" points="63.65 114.68 60.86 113.98 58.97 115.94 60.87 117.99 63.65 117.21 63.65 114.68"/>
        </g>
      </g>
    </g>
  </g>
</svg>