<?xml version="1.0" encoding="UTF-8"?>
<svg id="Layer_2" data-name="Layer 2" xmlns="http://www.w3.org/2000/svg" viewBox="0 0 334.65 244.08">
  <defs>
    <style>
      .cls-1 {
        fill: #8f3b1b;
      }

      .cls-1, .cls-2, .cls-3, .cls-4, .cls-5 {
        stroke-width: 0px;
      }

      .cls-2 {
        fill: #f3b329;
      }

      .cls-3 {
        fill: #bb4f00;
      }

      .cls-4 {
        fill: #773116;
      }

      .cls-5 {
        fill: #d45a00;
      }
    </style>
  </defs>
  <g id="Layer_2-2" data-name="Layer 2">
    <g>
      <path class="cls-4" d="m27.13,112.42L0,97.44l3.13-5.68,22.19,12.25,7.42-13.44,4.94,2.73-10.55,19.12Z"/>
      <path class="cls-4" d="m32.83,83.41c2.88,1.92,5.85,1.69,7.64-.7,1.17-1.57,1.42-3.54.41-4.83l3.75-5.01c2.94,3.95,2.8,8.57-.14,12.49-4.59,6.13-10.24,6.68-16.9,1.7-5.68-4.25-6.91-10.24-2.69-15.89,4.22-5.64,10.12-5.89,17.41-.44l-9.48,12.67Zm2.67-9.95c-2.78-1.97-5.43-1.15-6.86.75-1.45,1.94-1.16,4.67,1.24,6.76l5.62-7.51Z"/>
      <path class="cls-4" d="m58,68.18l-20.04-23.64,11.64-9.87c4.63-3.92,9.23-3.54,12.58.41,1.72,2.03,1.92,4.79.86,6.86,2.63-.94,5.59-.7,8.46,2.68,3.65,4.31,3.09,9.49-2.85,14.53l-10.64,9.02Zm-11.8-23.59l4.35,5.13,6.23-5.28c1.96-1.66,2.24-3.43.82-5.1-1.54-1.82-3.13-1.75-5.45.21l-5.95,5.04Zm19.42,10.21c2.28-1.93,2.39-4.54.76-6.46-1.75-2.07-3.89-1.84-6.1.03l-6.34,5.37,5.4,6.37,6.27-5.31Z"/>
      <path class="cls-4" d="m70.25,19.19l-2.51,7.98-3.07-.91,1.84-8.45,4.22-2.58,8.36,2.23-.59,3.15-8.25-1.42Zm20.29,24.74l-1.68-2.75c0,3.06-1.39,5.33-4.1,6.99-3.9,2.38-8.43,1.15-11.05-3.15l-7.88-12.91,5.18-3.16,7.39,12.11c1.51,2.47,3.35,2.99,5.54,1.65,2.63-1.6,2.88-4.33,1.3-6.92l-6.9-11.31,5.14-3.14,11.96,19.6-4.9,2.99Z"/>
      <path class="cls-4" d="m112.6,24.45c1.49,5.15-1.08,10.16-6.19,12.35-5.75,2.46-11.33.33-14.57-7.22s-.7-12.55,5.22-15.08c5.49-2.35,10.57-.82,13.04,4.01l-5.62,2.41c-1.24-2.06-3.38-2.67-5.48-1.77-2.36,1.01-3.65,3.34-1.68,7.93,1.97,4.59,4.85,6,7.04,5.06,2.19-.94,3.37-2.92,2.61-5.28l5.62-2.41Z"/>
      <path class="cls-4" d="m130.72,28.07l-3.67-13.75c-.89-3.34-2.29-4.07-4.96-3.36-2.93.78-3.9,3.65-3.11,6.63l3.4,12.72-5.86,1.56L108.43,1.57l5.86-1.57,2.94,11c.33-2.21,2.63-4.42,5.61-5.22,4.55-1.22,8.42.6,9.6,5.02l4.19,15.69-5.91,1.58Z"/>
      <path class="cls-4" d="m142.53,15.73c.58,3.41,2.78,5.41,5.75,5.07,1.95-.22,3.55-1.39,3.79-3.02l6.21-.71c-.85,4.84-4.31,7.92-9.17,8.48-7.6.87-11.89-2.86-12.83-11.12-.81-7.05,2.7-12.06,9.71-12.86,7-.8,11.23,3.31,12.27,12.36l-15.72,1.81Zm9.07-4.89c-.48-3.37-2.89-4.74-5.26-4.47-2.41.28-4.19,2.36-4.06,5.54l9.32-1.07Z"/>
      <path class="cls-4" d="m160.59,23.89l.38-22.96,5.69.09-.04,2.75c2.06-3.05,4.39-3.29,6.87-3.25h.79s-.1,6.22-.1,6.22c-.56-.1-1.12-.16-1.68-.17-3.73-.06-5.58,1.78-5.64,5.46l-.2,11.95-6.07-.1Z"/>
      <path class="cls-4" d="m174.18,12.28c.87-7.23,5.93-11.46,13.16-10.6,7.14.86,11.02,6.12,10.15,13.39-.87,7.23-5.93,11.46-13.02,10.61-7.37-.88-11.14-6.32-10.29-13.41Zm17.24,2.07c.56-4.63-1.03-7.13-4.69-7.57-3.66-.44-5.79,1.61-6.34,6.24-.56,4.63,1.02,7.17,4.68,7.61,3.66.44,5.79-1.66,6.35-6.29Z"/>
      <path class="cls-4" d="m211.3,30.69l3.73-13.4c.95-3.42.22-4.64-2.56-5.41-3.06-.85-5.02.45-5.96,3.82l-3.53,12.68-5.85-1.63,6.16-22.12,5.58,1.55-.9,3.24c2.04-2.1,4.66-2.82,8.21-1.83,4.23,1.18,6.62,4.6,5.28,9.42l-4.27,15.33-5.89-1.64Z"/>
      <path class="cls-4" d="m228.45,36.65l14.83-27.21,13.4,7.3c5.33,2.9,6.63,7.34,4.15,11.89-1.27,2.34-3.78,3.52-6.09,3.27,1.83,2.11,2.67,4.96.54,8.85-2.7,4.96-7.74,6.31-14.59,2.58l-12.25-6.68Zm15.23,2.29c2.62,1.43,5.1.6,6.3-1.62,1.3-2.38.32-4.29-2.22-5.68l-7.3-3.98-4,7.34,7.21,3.93Zm2.53-21.8l-3.22,5.9,7.17,3.91c2.25,1.23,4,.85,5.05-1.07,1.14-2.09.5-3.55-2.16-5.01l-6.84-3.73Z"/>
      <path class="cls-4" d="m257.59,39.72c4.47-5.75,10.99-6.77,16.74-2.31,5.68,4.41,6.3,10.92,1.8,16.7-4.47,5.75-10.99,6.77-16.63,2.39-5.86-4.55-6.29-11.15-1.91-16.79Zm13.71,10.65c2.86-3.69,2.79-6.64-.12-8.9-2.91-2.26-5.79-1.6-8.65,2.09-2.86,3.69-2.82,6.67.09,8.94,2.91,2.26,5.82,1.56,8.68-2.12Z"/>
      <path class="cls-4" d="m269.8,64.26l16.22-16.25,4.03,4.02-1.95,1.95c3.6-.76,5.44.69,7.19,2.44l.56.56-4.39,4.39c-.33-.46-.69-.89-1.09-1.29-2.64-2.64-5.25-2.6-7.85,0l-8.44,8.45-4.29-4.29Z"/>
      <path class="cls-4" d="m290.18,71.26c-2.58,2.31-3.1,5.24-1.23,7.57,1.23,1.53,3.07,2.26,4.57,1.6l3.91,4.88c-4.55,1.86-9,.57-12.06-3.25-4.79-5.97-3.9-11.59,2.58-16.78,5.54-4.44,11.65-4.13,16.05,1.37,4.41,5.5,3.17,11.27-3.93,16.97l-9.9-12.35Zm8.97,5.07c2.6-2.2,2.47-4.97.99-6.83-1.52-1.89-4.23-2.29-6.85-.49l5.87,7.32Zm4.68-13.56l1.1-2.73,10.45,4.01-1.61,4.11-9.93-5.38Z"/>
      <path class="cls-4" d="m300.19,103.04c.39-.44,1-.97,1.58-1.36-2.1-.44-4.26-1.99-5.82-4.64-2.65-4.5-1.68-7.9,1.54-9.79,5.71-3.37,8.6.08,12.43,4.92,1.9,2.4,2.85,2.82,4.22,2.01,1.29-.76,1.29-2.5.08-4.55-1.4-2.37-3.13-2.65-5.04-1.85l-2.87-4.87c4.15-2.34,8.33-1.77,12.07,4.58,3.7,6.27,2.16,10.1-2.82,13.04l-12.5,7.37-2.87-4.87Zm9.48-6.07c-.83-.21-1.66-.97-3.16-2.69-2.32-2.64-3.73-3.11-5.42-2.12-1.49.88-1.69,2.19-.72,3.84,1.59,2.69,4.74,3.54,7.1,2.21l2.2-1.24Z"/>
      <path class="cls-4" d="m303.65,109.75l28.44-13.21,2.56,5.5-28.44,13.21-2.56-5.5Z"/>
    </g>
    <g>
      <path class="cls-2" d="m55.82,208.35c.29-.37.57-.72.86-1.08s.48-.61.59-.76c.23-.31.6-.48,1.1-.51.5-.03.98.03,1.45.18.47.14.87.35,1.21.63s.48.57.43.88c-.31,1.54-.71,3.22-1.19,5.03-.48,1.81-1.04,3.67-1.66,5.56-.63,1.89-1.34,3.78-2.15,5.66s-1.68,3.64-2.62,5.29c-.94,1.64-1.96,3.12-3.07,4.42-1.11,1.3-2.29,2.34-3.54,3.09-1.33.78-2.66,1.27-3.97,1.47-1.32.2-2.53.16-3.62-.1s-2.03-.72-2.8-1.37c-.77-.65-1.27-1.44-1.51-2.35-.31-1.3-.05-2.66.78-4.07.16.78.37,1.52.63,2.21.26.69.57,1.29.94,1.8.37.51.77.91,1.21,1.19.44.29.93.4,1.45.35,1.3-.11,2.69-.78,4.17-2.04,1.47-1.25,2.92-2.9,4.33-4.95,1.41-2.05,2.71-4.4,3.92-7.07,1.2-2.66,2.17-5.45,2.9-8.38-.5.63-1.14,1.42-1.94,2.39-.8.97-1.66,1.99-2.58,3.07s-1.89,2.17-2.9,3.27c-1.01,1.1-1.96,2.09-2.86,3-.9.9-1.72,1.66-2.47,2.27-.74.61-1.32.96-1.74,1.04-.63.16-1.28.1-1.96-.16-.68-.26-1.28-.62-1.8-1.08-.52-.46-.93-.95-1.23-1.49-.3-.54-.41-1-.33-1.39.39-1.62,1.07-3.39,2.04-5.32.97-1.93,2.1-3.76,3.41-5.5,1.31-1.73,2.72-3.23,4.25-4.48,1.53-1.25,3.05-2.01,4.56-2.27,1.1-.18,2.15-.12,3.17.18,1.02.3,1.88.76,2.58,1.39Zm-16.01,17.54c.76-.6,1.6-1.34,2.53-2.23s1.87-1.83,2.84-2.84c.97-1,1.92-2.04,2.86-3.09.94-1.06,1.81-2.06,2.6-3,.8-.94,1.49-1.79,2.08-2.55.59-.76,1.01-1.34,1.27-1.76.05-.08.1-.2.14-.37.04-.17.06-.35.06-.55s-.03-.38-.1-.55c-.07-.17-.16-.31-.29-.41-.5-.42-1.08-.54-1.74-.35-.67.18-1.38.58-2.13,1.18-.76.6-1.54,1.36-2.35,2.27-.81.91-1.59,1.91-2.35,2.98-.76,1.07-1.47,2.17-2.13,3.31-.67,1.13-1.25,2.22-1.74,3.25-.5,1.03-.88,1.96-1.16,2.78s-.4,1.47-.37,1.94Z"/>
      <path class="cls-2" d="m75.94,220.6c.08-.1.23-.15.45-.14s.43.07.63.18c.2.1.35.24.47.41.12.17.12.35.02.53-.5.86-1.06,1.82-1.7,2.88-.64,1.06-1.32,2.09-2.04,3.11-.72,1.02-1.46,1.94-2.21,2.76-.76.82-1.5,1.4-2.23,1.74-.39.18-.8.24-1.23.18-.43-.06-.82-.21-1.17-.43-.35-.22-.65-.5-.9-.82-.25-.33-.39-.65-.41-.96-.05-.42,0-.99.16-1.72.16-.73.33-1.4.51-2-.31.37-.65.79-1,1.27-.35.48-.74,1-1.16,1.55-.42.55-.85,1.1-1.31,1.64-.46.55-.93,1.06-1.43,1.53-.23.24-.59.33-1.08.27-.48-.05-.96-.19-1.43-.41-.47-.22-.88-.51-1.23-.86-.35-.35-.5-.72-.45-1.12.08-.99.31-2.05.7-3.17.39-1.12.87-2.21,1.43-3.27.56-1.06,1.19-2.04,1.88-2.96.69-.91,1.38-1.66,2.06-2.23.5-.39.95-.61,1.37-.67.42-.05.82,0,1.21.14.39.14.78.35,1.17.63.39.27.81.54,1.25.8.29-.31.57-.65.84-1,.27-.35.57-.7.88-1.04.18-.23.48-.32.88-.27.4.05.79.2,1.16.43.36.23.66.51.88.84.22.33.24.63.06.92-.89,1.51-1.6,2.86-2.13,4.03-.54,1.17-.93,2.17-1.17,2.98-.25.81-.37,1.42-.35,1.84.01.42.11.63.29.63.52-.03,1.32-.73,2.39-2.11,1.07-1.38,2.39-3.42,3.95-6.11Zm-9.51,1.53c.08-.1.12-.29.12-.55s-.05-.5-.14-.72c-.09-.22-.23-.36-.41-.41s-.42.08-.7.39c-.6.58-1.16,1.25-1.66,2.04-.51.78-.95,1.55-1.33,2.31-.38.76-.69,1.46-.92,2.09-.23.64-.35,1.12-.35,1.43.29-.23.67-.62,1.16-1.16.48-.53.99-1.13,1.51-1.78.52-.65,1.03-1.3,1.53-1.96.5-.65.9-1.21,1.21-1.68Z"/>
      <path class="cls-2" d="m87.57,221.19c.36-.05.78.04,1.25.27.47.23.81.44,1.02.63-.11.11-.18.16-.22.18-.04.01-.08.01-.14,0-.05-.01-.12-.03-.22-.06-.09-.03-.22-.03-.37,0-.39.08-.97.33-1.72.76-.76.43-1.54.91-2.35,1.45-.81.54-1.56,1.06-2.25,1.57-.69.51-1.14.88-1.35,1.12.13.21.26.4.39.59.13.18.26.38.39.59.39.7.56,1.41.51,2.11s-.27,1.39-.65,2.06-.88,1.29-1.51,1.86c-.63.57-1.29,1.06-2,1.45-.47.26-1,.45-1.59.57-.59.12-1.16.16-1.72.12s-1.08-.15-1.57-.33c-.48-.18-.86-.45-1.14-.8s-.42-.78-.43-1.27c-.01-.5.18-1.07.57-1.72.6-.99,1.38-1.92,2.33-2.78.95-.86,1.92-1.67,2.92-2.43-.47-.68-.95-1.33-1.43-1.94-.48-.61-.82-1.3-1-2.06-.16-.68-.19-1.36-.1-2.06.09-.69.28-1.35.57-1.98.29-.63.66-1.21,1.12-1.74.46-.54.97-1,1.55-1.39.29-.18.63-.27,1.02-.25.39.01.78.08,1.17.22.39.13.75.29,1.08.47.33.18.58.34.76.47.68-1.1,1.27-1.91,1.78-2.45s.92-.95,1.23-1.23c.18-.13.43-.1.74.1.31.2.61.46.88.78.27.33.48.66.63,1s.12.58-.06.71c-.42.29-.91.74-1.49,1.37-.58.63-1.11,1.29-1.61,2-.5.7-.88,1.39-1.16,2.06-.27.67-.32,1.21-.14,1.62-.13.05-.31.04-.53-.04-.22-.08-.44-.2-.67-.35-.22-.16-.42-.36-.61-.61-.18-.25-.31-.52-.39-.8-.05-.21-.05-.45,0-.72.05-.27.12-.54.2-.8.08-.26.17-.51.27-.74.1-.23.18-.42.23-.55-.5-.03-.96.24-1.39.8-.43.56-.75,1.23-.96,2.02-.21.78-.29,1.6-.23,2.45.05.85.33,1.56.82,2.13.5-.31,1.08-.7,1.74-1.17s1.34-.93,2.02-1.39c.68-.46,1.35-.85,2.02-1.19.67-.34,1.25-.55,1.74-.63Zm-12.65,12.8c.36-.03.8-.23,1.31-.61.51-.38.98-.83,1.41-1.35.43-.52.77-1.06,1.02-1.6.25-.55.29-.99.14-1.33-.81.76-1.57,1.52-2.29,2.29s-1.25,1.64-1.59,2.6Z"/>
      <path class="cls-2" d="m104.29,209.79c.39.21.71.44.96.7.25.26.45.58.61.94.29.65.39,1.36.31,2.11-.13.68-.35,1.11-.67,1.29.16-1.28-.77-2.19-2.78-2.74-2.06-.6-4.5-.74-7.32-.43-.73,1.1-1.42,2.24-2.06,3.44-.64,1.2-1.26,2.48-1.86,3.84-1.2,2.77-2.02,5.14-2.47,7.13-.44,2.06-.4,3.37.12,3.91.47.31,1.17.01,2.11-.9.91-.94,1.83-2.22,2.74-3.84.44-.84.81-1.65,1.1-2.45.29-.8.5-1.59.63-2.37.23-1.51-.17-2.64-1.21-3.37-.39-.23-.55-.63-.47-1.17.13-.52.4-1.02.82-1.49.21-.23.41-.44.61-.63.2-.18.42-.31.69-.39.42-.18.78-.08,1.1.31.05.05.1.13.16.23.03.13.08.25.18.37.09.12.2.25.33.41.13.18.34.36.63.55.29.18.65.4,1.1.66,1.54.78,2.78,1.66,3.72,2.62.86.99,1.12,2.45.78,4.39-.08.5-.22,1.08-.43,1.74-.21.67-.46,1.43-.74,2.29-.29.81-.55,1.62-.8,2.43-.25.81-.49,1.63-.72,2.47s-.4,1.6-.51,2.29-.16,1.34-.16,1.94c.08,1.15.59,1.77,1.53,1.88-.37.57-.98.74-1.84.51-.86-.18-1.67-.72-2.43-1.6-.68-.97-.9-2.18-.67-3.64.21-.99.47-1.98.78-2.96.31-.98.69-2,1.14-3.07.47-1.33.86-2.51,1.17-3.52.44-1.46.51-2.64.2-3.52-.29-.91-1.06-1.61-2.31-2.08.34,1.44.14,3.16-.59,5.17-.73,2.09-1.75,4.1-3.05,6.03-1.31,1.88-2.6,3.21-3.88,3.99-.76.31-1.66.3-2.7-.04-1.07-.39-1.89-.97-2.47-1.72-.81-1.57-.67-4.19.43-7.87.52-1.88,1.14-3.72,1.84-5.52.7-1.8,1.51-3.59,2.43-5.36-1.33.42-2.53,1.02-3.6,1.8-.21.13-.46.09-.74-.12-.1-.13-.22-.28-.33-.45-.12-.17-.23-.36-.33-.57-.13-.18-.22-.37-.25-.55-.04-.18-.08-.38-.14-.59-.08-.34-.01-.57.2-.71,1.98-.91,4.33-1.63,7.05-2.15.44-.76.88-1.41,1.31-1.96s.83-.99,1.19-1.33c.42-.34.94-.36,1.57-.08.6.29,1.08.71,1.45,1.25.36.55.42.99.16,1.33-.05.05-.09.09-.12.12-.03.03-.07.05-.12.08,2.71-.08,4.93.24,6.66.94Z"/>
      <path class="cls-2" d="m136.82,220.95c.21.29.25.63.12,1.02-.1.37-.41,1.07-.9,2.11-.26.44-.59.98-.98,1.61-.39.63-.85,1.32-1.37,2.07-1.15,1.54-2.23,2.61-3.25,3.21-.5.26-1.1.35-1.8.27-.37-.08-.7-.17-1-.27-.3-.11-.59-.24-.88-.39-.57-.36-.91-.73-1.02-1.1-.13-.57-.09-1.4.12-2.47.13-.52.25-1.04.37-1.55.12-.51.25-1.04.41-1.59.16-.52.3-.97.43-1.35.13-.38.25-.71.35-1,.03-.1.05-.2.08-.27.03-.08.04-.14.04-.2-.63.6-1.27,1.35-1.92,2.25-.65.9-1.36,1.95-2.11,3.15-1.49,2.38-2.6,4.32-3.33,5.83-.16.37-.57.51-1.25.43-.63-.08-1.19-.26-1.68-.55-.55-.31-.78-.66-.7-1.06.08-.31.2-.7.35-1.16s.34-1.01.55-1.66c.31-.89.62-1.81.92-2.76s.59-1.92.88-2.92c.18-.65.33-1.26.45-1.82.12-.56.2-1.1.25-1.62,0-.1,0-.19.02-.25.01-.06.02-.14.02-.22-.08-.89-.43-1.44-1.06-1.64-.76-.23-1.54-.23-2.35,0-.86.21-1.54.47-2.04.78,1.41.68,2.19,1.75,2.35,3.21,0,1.1-.12,2.22-.37,3.37-.25,1.15-.66,2.31-1.23,3.49-1.07,2.35-2.17,3.86-3.29,4.54-1.23.52-2.62.56-4.19.12-1.57-.47-2.52-1.5-2.86-3.09-.05-.6-.03-1.27.06-2.02.09-.74.28-1.55.57-2.41.26-.86.56-1.65.88-2.37s.67-1.36,1.04-1.94c.29-.31.72-.38,1.29-.2.55.16,1.07.46,1.57.9.44.39.56.77.35,1.13-.18.29-.38.63-.59,1.02-.21.39-.43.84-.67,1.33s-.44.98-.61,1.45-.32.97-.45,1.49c-.29,1.02-.29,1.84,0,2.47.1.26.31.38.63.35.29-.08.68-.37,1.17-.86.68-.78,1.25-1.61,1.72-2.49.47-.87.85-1.78,1.14-2.72.6-1.88.72-3.35.35-4.42-.37-1.04-1.29-1.12-2.78-.23-.6.31-1.17.29-1.72-.08-.6-.34-1.02-.82-1.25-1.45-.23-.57-.08-1.03.47-1.37.83-.44,1.77-.85,2.8-1.21,1.03-.36,2.15-.65,3.35-.86,2.45-.42,4.7-.01,6.73,1.21.91.6,1.53,1.33,1.84,2.19.31.86.42,1.75.31,2.66-.05.39-.12.78-.2,1.17-.08.39-.2.8-.35,1.21-.13.31-.25.63-.37.96-.12.33-.24.65-.37.96.08-.1.16-.21.23-.31.08-.11.14-.22.2-.35.52-.76,1.05-1.51,1.59-2.27.53-.76,1.1-1.55,1.7-2.39,1.17-1.62,2.24-2.78,3.21-3.48.5-.31,1.07-.37,1.72-.16.63.16,1.17.47,1.64.94.39.5.52.95.39,1.37-.08.21-.16.43-.25.65-.09.22-.2.48-.33.76-.31.7-.63,1.45-.94,2.23-.31.78-.64,1.61-.98,2.47-.63,1.7-.94,3.04-.94,4.03.44-.24.89-.55,1.35-.96.46-.4.91-.91,1.35-1.51.52-.6.98-1.23,1.39-1.88.4-.65.79-1.33,1.16-2.04.55-.99.94-1.59,1.17-1.8.1-.05.2-.1.27-.14.08-.04.16-.04.23-.02.34.08.6.22.78.43Z"/>
      <path class="cls-2" d="m162.94,214.45c.76-.39,1.46-.2,2.11.59.5.5.8.93.9,1.29.13.37.05.82-.23,1.37-.18.37-.4.87-.67,1.53-.26.65-.56,1.44-.9,2.35-.37.91-.7,1.85-1.02,2.8-.31.95-.63,1.95-.94,3-.65,2.09-.99,3.88-1.02,5.36-.05,1.51.4,2.35,1.37,2.5-.18.5-.69.67-1.53.51-.84-.13-1.59-.59-2.27-1.37-.7-.65-1.06-1.62-1.06-2.9.08-.91.23-1.9.47-2.96.23-1.06.55-2.17.94-3.35.76-2.32,1.38-4.06,1.88-5.21-.52.52-1.06,1.12-1.62,1.8s-1.12,1.48-1.66,2.39c-.57.89-1.09,1.77-1.55,2.64-.46.87-.87,1.77-1.23,2.68-.08.21-.33.27-.74.2-.42,0-.84-.14-1.25-.43-.39-.23-.6-.56-.63-.98,0-.5.12-1.29.35-2.39.13-.55.26-1.08.39-1.61.13-.52.26-1.04.39-1.57.13-.52.25-.94.35-1.25.1-.31.18-.55.23-.71-.37.37-.78.91-1.25,1.62-.47.72-1.02,1.62-1.64,2.72-.6,1.07-1.17,2.13-1.72,3.17s-1.07,2.09-1.57,3.13c-.16.29-.55.39-1.17.31-.63-.11-1.2-.31-1.72-.63-.5-.29-.72-.65-.67-1.1.05-.13.12-.31.22-.53.09-.22.2-.47.33-.76.29-.68.57-1.41.86-2.21.29-.8.6-1.68.94-2.64.63-1.98.93-3.69.9-5.13-.11-.78-.44-1.21-1.02-1.29-.63-.13-1.34-.12-2.15.04-.97.13-1.74.34-2.31.63,1.67.5,2.51,1.64,2.51,3.45s-.51,3.8-1.53,6.07c-.97,2.24-2.08,3.64-3.33,4.19-1.15.5-2.47.55-3.95.16-1.44-.42-2.35-1.37-2.74-2.86-.13-1.3.07-2.73.59-4.27.5-1.57,1.1-2.88,1.8-3.95.13-.13.3-.23.51-.29.21-.07.46-.05.74.06.57.16,1.07.43,1.49.82.39.39.5.76.31,1.1-.16.29-.34.61-.55.96s-.42.76-.63,1.23c-.23.47-.43.94-.59,1.41-.16.47-.3.95-.43,1.45-.21,1.02-.21,1.76,0,2.23.13.23.34.34.63.31.23-.03.6-.29,1.1-.78,1.23-1.49,2.11-3.16,2.66-5.01.52-1.85.61-3.25.27-4.19-.31-1.02-1.16-1.04-2.55-.08-.39.24-.8.26-1.21.08-.21-.11-.4-.22-.57-.35-.17-.13-.35-.3-.53-.51-.34-.47-.55-.87-.63-1.21-.08-.36.04-.63.35-.78.08-.05.16-.09.23-.12s.18-.07.31-.12c1.3-.63,3.16-1.21,5.56-1.76,2.43-.52,4.57-.22,6.42.9,1.41,1.15,2.11,2.42,2.11,3.8-.05.68-.13,1.34-.23,1.98-.1.64-.27,1.23-.51,1.78.13-.21.27-.44.41-.71.14-.26.31-.53.49-.82.39-.68.8-1.36,1.23-2.06s.88-1.39,1.35-2.09c.44-.76.86-1.38,1.25-1.86.39-.48.73-.86,1.02-1.12.34-.21.74-.22,1.21-.04.47.1.9.35,1.29.74.39.36.57.73.55,1.1,0,.13-.05.35-.16.67-.08.18-.15.38-.22.59-.07.21-.15.43-.25.67-.08.21-.16.43-.23.67-.08.23-.16.47-.23.7-.16.39-.27.77-.35,1.14-.08.21-.12.34-.12.39v.12c.08-.05.29-.35.63-.9.36-.52.77-1.08,1.21-1.68.44-.6.93-1.25,1.45-1.96.55-.68,1.05-1.26,1.51-1.74s.87-.85,1.23-1.12Z"/>
      <path class="cls-2" d="m173.2,221.7c.13-.18.29-.28.47-.29s.35.02.49.1c.14.08.26.18.35.31s.1.26.02.39c-.29.6-.7,1.38-1.25,2.35s-1.15,1.93-1.8,2.9c-.65.97-1.33,1.84-2.02,2.62-.69.78-1.31,1.29-1.86,1.53-.34.13-.73.17-1.17.12s-.86-.18-1.25-.37c-.39-.2-.72-.46-.98-.78s-.38-.7-.35-1.12c.03-.52.14-1.22.33-2.09.2-.87.46-1.8.78-2.78.33-.98.69-1.94,1.08-2.9.39-.95.8-1.77,1.21-2.45.13-.21.4-.31.8-.31s.8.08,1.19.24c.39.16.72.36.98.63.26.26.33.54.2.82-1.23,2.35-2.06,4.18-2.51,5.5-.44,1.32-.59,2.17-.43,2.56.1.29.33.32.67.1.34-.22.76-.65,1.27-1.27.51-.63,1.09-1.44,1.74-2.43.65-.99,1.33-2.11,2.04-3.37Zm-2.47-4.11c-.16.21-.39.33-.69.35-.3.03-.6,0-.9-.1-.3-.09-.56-.23-.78-.41-.22-.18-.32-.38-.29-.59.05-.37.14-.75.25-1.16.12-.4.24-.78.37-1.14s.26-.67.39-.96c.13-.29.23-.51.31-.67.16-.23.44-.36.86-.37s.83.06,1.23.22c.4.16.74.36,1,.63.26.26.31.52.16.78-.08.16-.2.38-.37.69-.17.3-.35.61-.53.94-.18.33-.37.65-.55.96-.18.31-.34.59-.47.82Z"/>
      <path class="cls-2" d="m184,221.38c.1-.1.24-.14.41-.12.17.03.33.09.49.2.16.1.27.24.35.41.08.17.06.35-.04.53-.34,1.02-.82,2.03-1.43,3.03-.61,1.01-1.31,1.95-2.09,2.84s-1.61,1.7-2.47,2.43c-.86.73-1.71,1.33-2.55,1.8-.39.21-.81.29-1.25.24s-.89-.18-1.33-.37-.85-.42-1.21-.69c-.37-.26-.67-.51-.9-.74-.5-.52-.77-1.22-.82-2.09-.05-.87.05-1.82.29-2.84s.62-2.07,1.12-3.17,1.05-2.13,1.66-3.09c.61-.97,1.26-1.81,1.94-2.54s1.32-1.27,1.92-1.61c.36-.18.7-.28,1.02-.29s.64.04.98.16c.34.12.69.29,1.04.51s.75.46,1.19.72c.63.39.91.89.86,1.49,0,.29-.11.8-.33,1.53-.22.73-.54,1.49-.94,2.29-.4.8-.9,1.54-1.49,2.23-.59.69-1.25,1.16-1.98,1.39-.52.13-.98.17-1.37.12-.39-.05-.82-.18-1.29-.39-.13.26-.27.65-.43,1.16-.16.51-.27,1.02-.35,1.55-.08.52-.11.99-.08,1.39.03.4.18.63.47.69.42.08,1.01-.14,1.78-.67.77-.52,1.57-1.21,2.41-2.06.83-.85,1.66-1.81,2.47-2.88.81-1.07,1.46-2.12,1.96-3.13Zm-3.92-2.9c-.26.18-.59.53-1,1.04-.4.51-.8,1.05-1.17,1.62-.38.58-.7,1.11-.98,1.61s-.41.81-.41.94c.47.08.91-.06,1.31-.43.4-.36.77-.83,1.1-1.39.33-.56.59-1.16.78-1.78.2-.63.32-1.16.37-1.6Z"/>
      <path class="cls-2" d="m201.74,222.64c.16.29.35.57.59.86.23.29.5.61.78.98l4.86-12.25c-1.46,1.1-2.62,2.09-3.47,3s-1.39,1.66-1.62,2.27c-.23.61-.16,1.05.22,1.31.38.26,1.08.31,2.09.16-.13.34-.5.57-1.12.7-.61.13-1.26.12-1.94-.04-.68-.16-1.29-.47-1.84-.94-.55-.47-.8-1.14-.74-2,0-.55.25-1.2.74-1.96.5-.76,1.15-1.53,1.96-2.33.81-.79,1.74-1.58,2.78-2.35,1.04-.77,2.13-1.46,3.27-2.08s2.27-1.1,3.41-1.47c1.14-.37,2.2-.54,3.19-.51.86,0,1.71.27,2.55.82.83.55,1.57,1.22,2.21,2.02s1.14,1.64,1.51,2.53c.36.89.51,1.68.43,2.39-.08.86-.32,1.86-.72,3-.41,1.14-.93,2.29-1.59,3.47s-1.41,2.32-2.27,3.45c-.86,1.12-1.79,2.1-2.8,2.94-1.01.84-2.07,1.47-3.19,1.9s-2.26.55-3.41.37c.91.78,1.86,1.54,2.84,2.27.98.73,1.94,1.38,2.88,1.96s1.83,1.04,2.68,1.41c.85.37,1.6.58,2.25.63.68.05,1.24-.05,1.68-.31.44-.26.73-.59.86-.98.23.03.35.19.35.49s-.1.65-.29,1.06c-.2.4-.47.84-.82,1.29-.35.46-.76.86-1.21,1.21-.46.35-.96.61-1.51.76-.55.16-1.11.16-1.68,0-.7-.18-1.51-.53-2.41-1.04-.9-.51-1.84-1.12-2.82-1.82-.98-.7-1.96-1.48-2.96-2.33-.99-.85-1.92-1.7-2.78-2.56l-2.66,7.2c-.08.24-.33.35-.76.33-.43-.01-.87-.1-1.31-.25-.44-.16-.83-.36-1.16-.61-.33-.25-.44-.52-.33-.8.37-.94.85-2.23,1.47-3.86.61-1.63,1.27-3.39,1.98-5.27-.08-.11-.16-.21-.23-.31-.08-.1-.16-.21-.23-.31-.23-.36-.4-.77-.49-1.21-.09-.44-.12-.87-.1-1.29.03-.42.12-.8.27-1.14.16-.34.36-.59.63-.74Zm4.7,3.6c.76.42,1.62.38,2.6-.12.98-.5,1.96-1.26,2.94-2.31.98-1.04,1.91-2.28,2.78-3.7s1.57-2.84,2.09-4.25c.52-1.41.82-2.74.88-3.99.06-1.25-.2-2.23-.8-2.94-.18-.21-.53-.3-1.04-.27-.51.03-1.08.14-1.72.33-.64.2-1.31.46-2,.8s-1.32.7-1.9,1.1c.18,0,.4.05.65.14.25.09.47.22.67.37.2.16.35.33.47.53.12.2.12.41.02.65-.23.42-.51.99-.82,1.72-.31.73-.65,1.53-1,2.41-.35.87-.72,1.79-1.1,2.76-.38.97-.74,1.89-1.08,2.76-.34.87-.65,1.66-.94,2.37-.29.7-.52,1.25-.7,1.64Z"/>
      <path class="cls-2" d="m234.98,222.24c.08-.13.2-.19.37-.18.17.01.34.07.51.16.17.09.31.2.43.33.12.13.16.23.14.31-.18.42-.42.97-.72,1.65s-.65,1.41-1.06,2.19c-.4.78-.84,1.56-1.29,2.33-.46.77-.93,1.44-1.43,2.02-.5.57-.99,1.01-1.49,1.31-.5.3-.98.35-1.45.14-.84-.39-1.47-.85-1.9-1.37s-.59-1.28-.49-2.27c-.47.7-.91,1.36-1.33,1.96-.42.6-1.03,1.32-1.84,2.15-.29.31-.69.5-1.21.55-.52.05-1.04,0-1.55-.14s-.96-.37-1.35-.69c-.39-.31-.6-.68-.63-1.1-.03-.47.03-1.07.16-1.8.13-.73.31-1.52.53-2.37.22-.85.48-1.7.78-2.56.3-.86.6-1.66.9-2.41.3-.74.58-1.37.84-1.88.26-.51.48-.84.67-1,.18-.18.46-.25.82-.22.36.04.71.14,1.04.29s.59.35.78.57c.2.22.24.43.14.61-.21.37-.5.99-.86,1.86s-.73,1.81-1.1,2.82c-.37,1.01-.69,1.97-.98,2.9-.29.93-.44,1.61-.47,2.06.13-.03.35-.22.65-.59.3-.36.65-.85,1.06-1.47s.84-1.32,1.31-2.13c.47-.81.96-1.66,1.47-2.56s1-1.82,1.49-2.76c.48-.94.93-1.87,1.35-2.78.16-.34.44-.51.84-.51s.8.09,1.19.27c.39.18.71.42.96.72.25.3.32.57.22.8-.29.63-.61,1.44-.98,2.45-.37,1.01-.7,2.05-1,3.13-.3,1.08-.54,2.11-.72,3.07-.18.97-.23,1.7-.16,2.19.5-.31,1-.81,1.53-1.49.52-.68,1.02-1.41,1.51-2.19.48-.78.93-1.57,1.33-2.37.4-.8.74-1.47,1-2.02Z"/>
      <path class="cls-2" d="m247.12,221.19c.36-.05.78.04,1.25.27.47.23.81.44,1.02.63-.11.11-.18.16-.22.18-.04.01-.08.01-.14,0-.05-.01-.12-.03-.22-.06-.09-.03-.22-.03-.37,0-.39.08-.97.33-1.72.76-.76.43-1.54.91-2.35,1.45-.81.54-1.56,1.06-2.25,1.57-.69.51-1.14.88-1.35,1.12.13.21.26.4.39.59.13.18.26.38.39.59.39.7.56,1.41.51,2.11s-.27,1.39-.65,2.06-.88,1.29-1.51,1.86c-.63.57-1.29,1.06-2,1.45-.47.26-1,.45-1.59.57-.59.12-1.16.16-1.72.12s-1.08-.15-1.57-.33c-.48-.18-.86-.45-1.14-.8s-.42-.78-.43-1.27c-.01-.5.18-1.07.57-1.72.6-.99,1.38-1.92,2.33-2.78.95-.86,1.92-1.67,2.92-2.43-.47-.68-.95-1.33-1.43-1.94-.48-.61-.82-1.3-1-2.06-.16-.68-.19-1.36-.1-2.06.09-.69.28-1.35.57-1.98.29-.63.66-1.21,1.12-1.74.46-.54.97-1,1.55-1.39.29-.18.63-.27,1.02-.25.39.01.78.08,1.17.22.39.13.75.29,1.08.47.33.18.58.34.76.47.68-1.1,1.27-1.91,1.78-2.45s.92-.95,1.23-1.23c.18-.13.43-.1.74.1.31.2.61.46.88.78.27.33.48.66.63,1s.12.58-.06.71c-.42.29-.91.74-1.49,1.37-.58.63-1.11,1.29-1.61,2-.5.7-.88,1.39-1.16,2.06-.27.67-.32,1.21-.14,1.62-.13.05-.31.04-.53-.04-.22-.08-.44-.2-.67-.35-.22-.16-.42-.36-.61-.61-.18-.25-.31-.52-.39-.8-.05-.21-.05-.45,0-.72.05-.27.12-.54.2-.8.08-.26.17-.51.27-.74.1-.23.18-.42.23-.55-.5-.03-.96.24-1.39.8-.43.56-.75,1.23-.96,2.02-.21.78-.29,1.6-.23,2.45.05.85.33,1.56.82,2.13.5-.31,1.08-.7,1.74-1.17s1.34-.93,2.02-1.39c.68-.46,1.35-.85,2.02-1.19.67-.34,1.25-.55,1.74-.63Zm-12.65,12.8c.36-.03.8-.23,1.31-.61.51-.38.98-.83,1.41-1.35.43-.52.77-1.06,1.02-1.6.25-.55.29-.99.14-1.33-.81.76-1.57,1.52-2.29,2.29s-1.25,1.64-1.59,2.6Z"/>
      <path class="cls-2" d="m263.99,210.07c.97.26,1.64.74,2.04,1.45.21.31.36.64.45.98s.12.67.1.98c-.05.37-.12.65-.22.84-.09.19-.25.36-.49.49.16-1.18-.82-1.96-2.94-2.35-2.14-.36-4.66-.31-7.56.16-2.14,2.92-3.97,6.16-5.48,9.71-.81,1.8-1.44,3.47-1.9,4.99-.46,1.53-.75,2.94-.88,4.25-.23,2.61.54,3.92,2.31,3.92-.94.94-2.11,1.11-3.52.51-1.44-.6-2.28-1.92-2.55-3.95-.03-.91.11-2.02.41-3.31.3-1.29.78-2.8,1.43-4.52.68-1.72,1.41-3.43,2.19-5.13s1.64-3.38,2.58-5.05c-.78.29-1.51.6-2.19.94s-1.32.7-1.92,1.1c-.23.18-.51.17-.82-.04-.31-.16-.63-.44-.94-.86-.26-.31-.46-.64-.59-.98-.08-.37,0-.61.23-.74,1.28-.58,2.6-1.09,3.95-1.55,1.36-.46,2.78-.87,4.27-1.23.52-.86,1.04-1.62,1.57-2.27.52-.65,1.02-1.23,1.49-1.72.37-.31.89-.31,1.57,0,.65.26,1.17.67,1.57,1.21.37.55.34,1.07-.08,1.57-.05.05-.1.09-.14.12-.04.03-.09.07-.14.12,2.37-.16,4.44-.03,6.19.39Zm-3.52,12.02c.23-.24.47-.31.7-.24.13,0,.25.03.35.1s.2.14.27.22c.13.18.18.37.16.55-.23.37-.51.83-.82,1.39-.31.56-.67,1.18-1.06,1.86-.39.68-.82,1.33-1.29,1.94-.47.61-.98,1.18-1.53,1.7-1.1,1.05-2.09,1.71-2.98,2-.81.26-1.7.13-2.66-.39-.94-.47-1.41-1.16-1.41-2.07.08-.6.24-1.3.49-2.09.25-.8.58-1.72,1-2.76.86-2.06,1.79-3.81,2.78-5.25.26-.26.7-.31,1.33-.16.6.1,1.16.34,1.68.7.44.37.59.73.43,1.1-3.13,5.3-4.22,7.88-3.25,7.75.97-.08,2.9-2.19,5.79-6.34Zm-1.49-4.23c-.23.29-.59.39-1.06.31-.52-.08-.95-.23-1.29-.47-.42-.23-.6-.48-.55-.74.13-.39.25-.78.37-1.17.12-.39.27-.77.45-1.14.18-.36.35-.68.49-.94.14-.26.27-.47.37-.63.29-.34.76-.44,1.41-.31.34.08.65.17.94.27.29.1.55.23.78.39.26.21.42.4.47.57.05.17.04.36-.04.57-.08.11-.16.21-.23.31-.08.11-.17.23-.27.39-.13.21-.27.43-.43.66-.16.24-.31.47-.47.71-.18.21-.35.42-.49.63-.14.21-.29.4-.45.59Z"/>
      <path class="cls-2" d="m269.39,217.08c.18-.21.48-.29.88-.23.4.05.79.18,1.16.39.36.21.66.47.88.78.22.31.25.6.1.86-.1.21-.29.65-.57,1.31s-.61,1.48-1,2.45c-.39.97-.81,2.04-1.25,3.21-.44,1.17-.9,2.38-1.37,3.62-.47,1.24-.93,2.47-1.39,3.68-.46,1.21-.87,2.33-1.23,3.35.42-.42.82-.67,1.19-.76.38-.09.7-.1.98-.02s.47.2.59.37c.12.17.12.29.02.37-.5.36-.99.84-1.49,1.43-.5.59-.96,1.2-1.39,1.84-.43.64-.81,1.27-1.14,1.88-.33.61-.58,1.13-.76,1.55-.18.39-.53.66-1.04.8-.51.14-1.01.16-1.51.06-.5-.1-.9-.33-1.21-.66-.31-.34-.37-.78-.16-1.33.26-.7.58-1.57.96-2.6.38-1.03.8-2.11,1.25-3.25.46-1.14.91-2.28,1.35-3.45.44-1.16.85-2.21,1.23-3.15s.69-1.73.94-2.37c.25-.64.38-1.01.41-1.12-.29.31-.61.71-.96,1.19-.35.48-.73.99-1.14,1.53s-.83,1.08-1.27,1.62c-.44.55-.9,1.03-1.37,1.45-.23.21-.58.29-1.02.23-.44-.05-.89-.18-1.33-.39-.44-.21-.82-.47-1.14-.78s-.46-.65-.43-1.02c.08-.91.32-1.94.72-3.09s.89-2.27,1.45-3.37c.56-1.1,1.18-2.12,1.86-3.07s1.33-1.69,1.96-2.21c.47-.36.9-.57,1.29-.63.39-.05.77-.01,1.14.12s.72.32,1.08.57c.35.25.72.49,1.12.72.29-.29.55-.59.8-.9.25-.31.52-.64.8-.98Zm-4.11,5.44c.08-.08.18-.29.29-.65.12-.35.2-.69.23-1.02.04-.33.03-.57-.04-.72s-.24-.1-.53.16c-.47.44-.94,1.02-1.41,1.72-.47.7-.91,1.44-1.31,2.19-.41.76-.76,1.49-1.06,2.19-.3.71-.5,1.27-.61,1.68.08-.03.3-.27.67-.72.37-.46.78-.99,1.25-1.6l1.41-1.84c.47-.61.83-1.08,1.1-1.39Z"/>
      <path class="cls-2" d="m287.09,222.24c.08-.13.2-.19.37-.18.17.01.34.07.51.16.17.09.31.2.43.33.12.13.16.23.14.31-.18.42-.42.97-.72,1.65s-.65,1.41-1.06,2.19c-.4.78-.84,1.56-1.29,2.33-.46.77-.93,1.44-1.43,2.02-.5.57-.99,1.01-1.49,1.31-.5.3-.98.35-1.45.14-.84-.39-1.47-.85-1.9-1.37s-.59-1.28-.49-2.27c-.47.7-.91,1.36-1.33,1.96-.42.6-1.03,1.32-1.84,2.15-.29.31-.69.5-1.21.55-.52.05-1.04,0-1.55-.14s-.96-.37-1.35-.69c-.39-.31-.6-.68-.63-1.1-.03-.47.03-1.07.16-1.8.13-.73.31-1.52.53-2.37.22-.85.48-1.7.78-2.56.3-.86.6-1.66.9-2.41.3-.74.58-1.37.84-1.88.26-.51.48-.84.67-1,.18-.18.46-.25.82-.22.36.04.71.14,1.04.29s.59.35.78.57c.2.22.24.43.14.61-.21.37-.5.99-.86,1.86s-.73,1.81-1.1,2.82c-.37,1.01-.69,1.97-.98,2.9-.29.93-.44,1.61-.47,2.06.13-.03.35-.22.65-.59.3-.36.65-.85,1.06-1.47s.84-1.32,1.31-2.13c.47-.81.96-1.66,1.47-2.56s1-1.82,1.49-2.76c.48-.94.93-1.87,1.35-2.78.16-.34.44-.51.84-.51s.8.09,1.19.27c.39.18.71.42.96.72.25.3.32.57.22.8-.29.63-.61,1.44-.98,2.45-.37,1.01-.7,2.05-1,3.13-.3,1.08-.54,2.11-.72,3.07-.18.97-.23,1.7-.16,2.19.5-.31,1-.81,1.53-1.49.52-.68,1.02-1.41,1.51-2.19.48-.78.93-1.57,1.33-2.37.4-.8.74-1.47,1-2.02Z"/>
      <path class="cls-2" d="m298.17,221.38c.1-.1.24-.14.41-.12.17.03.33.09.49.2.16.1.27.24.35.41.08.17.06.35-.04.53-.34,1.02-.82,2.03-1.43,3.03-.61,1.01-1.31,1.95-2.09,2.84s-1.61,1.7-2.47,2.43c-.86.73-1.71,1.33-2.55,1.8-.39.21-.81.29-1.25.24s-.89-.18-1.33-.37-.85-.42-1.21-.69c-.37-.26-.67-.51-.9-.74-.5-.52-.77-1.22-.82-2.09-.05-.87.05-1.82.29-2.84s.62-2.07,1.12-3.17,1.05-2.13,1.66-3.09c.61-.97,1.26-1.81,1.94-2.54s1.32-1.27,1.92-1.61c.36-.18.7-.28,1.02-.29s.64.04.98.16c.34.12.69.29,1.04.51s.75.46,1.19.72c.63.39.91.89.86,1.49,0,.29-.11.8-.33,1.53-.22.73-.54,1.49-.94,2.29-.4.8-.9,1.54-1.49,2.23-.59.69-1.25,1.16-1.98,1.39-.52.13-.98.17-1.37.12-.39-.05-.82-.18-1.29-.39-.13.26-.27.65-.43,1.16-.16.51-.27,1.02-.35,1.55-.08.52-.11.99-.08,1.39.03.4.18.63.47.69.42.08,1.01-.14,1.78-.67.77-.52,1.57-1.21,2.41-2.06.83-.85,1.66-1.81,2.47-2.88.81-1.07,1.46-2.12,1.96-3.13Zm-3.92-2.9c-.26.18-.59.53-1,1.04-.4.51-.8,1.05-1.17,1.62-.38.58-.7,1.11-.98,1.61s-.41.81-.41.94c.47.08.91-.06,1.31-.43.4-.36.77-.83,1.1-1.39.33-.56.59-1.16.78-1.78.2-.63.32-1.16.37-1.6Z"/>
    </g>
    <g>
      <g>
        <path class="cls-1" d="m259.17,141.6h-26.31c-.36,0-.68-.19-.86-.5-.18-.31-.18-.69,0-1l5.04-8.9h-2.64c-.38,0-.72-.21-.89-.55s-.13-.74.09-1.05l5.9-7.9h-2.48c-.38,0-.73-.22-.9-.56-.17-.34-.12-.75.11-1.05l8.94-11.48c.19-.25.49-.41.8-.39.31,0,.61.15.79.41l8.47,11.48c.22.3.26.71.09,1.04s-.52.55-.89.55h-2.35l5.39,7.94c.21.31.23.7.06,1.03s-.51.53-.88.53h-1.66l5.05,8.9c.18.31.17.69,0,1s-.51.5-.86.5Zm-24.59-2h22.87l-5.05-8.9c-.18-.31-.17-.69,0-1s.51-.5.86-.5h1.49l-5.39-7.94c-.21-.31-.23-.7-.06-1.03s.51-.53.88-.53h2.26l-6.51-8.83-6.88,8.83h2.42c.38,0,.72.21.89.55s.13.74-.09,1.05l-5.9,7.9h2.36c.36,0,.68.19.86.5.18.31.18.69,0,1l-5.04,8.9Z"/>
        <path class="cls-1" d="m244.37,121.7h-2.87c-.55,0-1-.45-1-1s.45-1,1-1h2.87c.55,0,1,.45,1,1s-.45,1-1,1Z"/>
        <path class="cls-1" d="m241.49,131.2h-3.33c-.55,0-1-.45-1-1s.45-1,1-1h3.33c.55,0,1,.45,1,1s-.45,1-1,1Z"/>
        <path class="cls-1" d="m248.3,147.48h-4.72c-.55,0-1-.45-1-1v-5.89c0-.55.45-1,1-1s1,.45,1,1v4.89h2.72v-4.89c0-.55.45-1,1-1s1,.45,1,1v5.89c0,.55-.45,1-1,1Z"/>
      </g>
      <g>
        <path class="cls-1" d="m288.81,143.16h-18.2c-.27,0-.51-.14-.65-.37-.13-.23-.14-.52,0-.75l3.44-6.07h-1.73c-.28,0-.54-.16-.67-.41-.13-.25-.1-.56.07-.78l4.01-5.37h-1.6c-.29,0-.55-.16-.67-.42-.13-.26-.09-.56.08-.79l6.19-7.94c.14-.19.38-.27.6-.29.23,0,.45.12.59.3l5.86,7.94c.17.23.19.53.07.78-.13.25-.39.41-.67.41h-1.52l3.67,5.4c.16.23.17.53.04.77-.13.25-.38.4-.66.4h-1.05l3.45,6.07c.13.23.13.52,0,.75-.13.23-.38.37-.65.37Zm-16.91-1.5h15.63l-3.45-6.07c-.13-.23-.13-.52,0-.75.13-.23.38-.37.65-.37h.92l-3.67-5.4c-.16-.23-.17-.53-.04-.77.13-.25.38-.4.66-.4h1.45l-4.39-5.95-4.64,5.95h1.56c.28,0,.54.16.67.41.13.25.1.56-.07.78l-4.01,5.37h1.52c.27,0,.51.14.65.37.13.23.14.52,0,.75l-3.44,6.07Z"/>
        <path class="cls-1" d="m278.56,129.39h-1.99c-.41,0-.75-.34-.75-.75s.34-.75.75-.75h1.99c.41,0,.75.34.75.75s-.34.75-.75.75Z"/>
        <path class="cls-1" d="m276.58,135.96h-2.3c-.41,0-.75-.34-.75-.75s.34-.75.75-.75h2.3c.41,0,.75.34.75.75s-.34.75-.75.75Z"/>
        <path class="cls-1" d="m281.29,147.23h-3.26c-.41,0-.75-.34-.75-.75v-4.07c0-.41.34-.75.75-.75s.75.34.75.75v3.32h1.76v-3.32c0-.41.34-.75.75-.75s.75.34.75.75v4.07c0,.41-.34.75-.75.75Z"/>
      </g>
    </g>
    <g>
      <g>
        <path class="cls-1" d="m101.78,141.6h-26.31c-.36,0-.69-.19-.86-.5s-.18-.69,0-1l5.05-8.9h-1.66c-.37,0-.71-.2-.88-.53s-.15-.72.06-1.03l5.39-7.94h-2.35c-.38,0-.72-.21-.89-.55-.17-.34-.14-.74.09-1.04l8.47-11.48c.19-.25.48-.4.79-.41.32,0,.61.14.8.39l8.94,11.48c.23.3.28.71.11,1.05-.17.34-.52.56-.9.56h-2.48l5.9,7.9c.23.3.26.71.09,1.05s-.52.55-.89.55h-2.64l5.04,8.9c.18.31.17.69,0,1-.18.31-.51.5-.86.5Zm-24.59-2h22.87l-5.04-8.9c-.18-.31-.17-.69,0-1,.18-.31.51-.5.86-.5h2.36l-5.9-7.9c-.23-.3-.26-.71-.09-1.05s.52-.55.89-.55h2.42l-6.88-8.83-6.51,8.83h2.26c.37,0,.71.2.88.53s.15.72-.06,1.03l-5.39,7.94h1.49c.36,0,.69.19.86.5s.18.69,0,1l-5.05,8.9Z"/>
        <path class="cls-1" d="m93.15,121.7h-2.87c-.55,0-1-.45-1-1s.45-1,1-1h2.87c.55,0,1,.45,1,1s-.45,1-1,1Z"/>
        <path class="cls-1" d="m96.48,131.2h-3.33c-.55,0-1-.45-1-1s.45-1,1-1h3.33c.55,0,1,.45,1,1s-.45,1-1,1Z"/>
        <path class="cls-1" d="m91.06,147.48h-4.72c-.55,0-1-.45-1-1v-5.89c0-.55.45-1,1-1s1,.45,1,1v4.89h2.72v-4.89c0-.55.45-1,1-1s1,.45,1,1v5.89c0,.55-.45,1-1,1Z"/>
      </g>
      <g>
        <path class="cls-1" d="m64.04,143.16h-18.2c-.27,0-.51-.14-.65-.37-.13-.23-.14-.52,0-.75l3.45-6.07h-1.05c-.28,0-.53-.15-.66-.4-.13-.25-.11-.54.04-.77l3.67-5.4h-1.52c-.28,0-.54-.16-.67-.41-.13-.25-.1-.56.07-.78l5.86-7.94c.14-.19.36-.3.59-.3.23,0,.46.1.6.29l6.19,7.94c.18.23.21.53.08.79-.13.26-.39.42-.67.42h-1.6l4.01,5.37c.17.23.2.53.07.78-.13.25-.39.41-.67.41h-1.73l3.44,6.07c.13.23.13.52,0,.75-.13.23-.38.37-.65.37Zm-16.91-1.5h15.63l-3.44-6.07c-.13-.23-.13-.52,0-.75.13-.23.38-.37.65-.37h1.52l-4.01-5.37c-.17-.23-.2-.53-.07-.78.13-.25.39-.41.67-.41h1.56l-4.64-5.95-4.39,5.95h1.45c.28,0,.53.15.66.4.13.25.11.54-.04.77l-3.67,5.4h.92c.27,0,.51.14.65.37.13.23.14.52,0,.75l-3.45,6.07Z"/>
        <path class="cls-1" d="m58.07,129.39h-1.99c-.41,0-.75-.34-.75-.75s.34-.75.75-.75h1.99c.41,0,.75.34.75.75s-.34.75-.75.75Z"/>
        <path class="cls-1" d="m60.37,135.96h-2.3c-.41,0-.75-.34-.75-.75s.34-.75.75-.75h2.3c.41,0,.75.34.75.75s-.34.75-.75.75Z"/>
        <path class="cls-1" d="m56.62,147.23h-3.26c-.41,0-.75-.34-.75-.75v-4.07c0-.41.34-.75.75-.75s.75.34.75.75v3.32h1.76v-3.32c0-.41.34-.75.75-.75s.75.34.75.75v4.07c0,.41-.34.75-.75.75Z"/>
      </g>
    </g>
    <path class="cls-5" d="m206.36,106.77c-2.55.49-5.11-.11-6.88-1.89-1.24-1.24-1.9-2.85-2.03-4.58-1.73-.13-3.34-.79-4.58-2.03-1.73-1.73-2.35-4.21-1.93-6.7-.62-.32-1.19-.72-1.7-1.23-1.49-1.49-2.14-3.52-2.03-5.63-1.5.32-2.9.92-4.14,1.85-4.84,3.62,1.29,9.28,1.8,17,.28,4.32,2.81,10.4,5.87,13.46,3.54,3.54,6.89,5.79,15.81.96,2.55-1.38,3.75-4.33,4.29-7.34-1.14-.32-2.2-.88-3.06-1.75-.62-.62-1.1-1.35-1.44-2.13Z"/>
    <path class="cls-5" d="m181.37,81.25c2.83,3.38-9.79,2.2-16.57,6.43-13.33,8.3-34.93.52-13.48-4.49,3.34-.78,6.48-6.22,14.47-6.22s13.37,1.65,15.58,4.29Z"/>
    <path class="cls-5" d="m150.69,116.57c8.91,9.68-6.94,7.99-15.15,7.71s-14.73-4.2-14.57-8.75,9-4.14,15.15-7.71c7.53-4.37,11.49,5.4,14.57,8.75Z"/>
    <path class="cls-5" d="m174.39,118.95c-3.43,2.99-3.72-1.51-15.97-5.8-9.13-3.2-6.99-13.63-3.56-16.62s13.65-2.08,15.97,5.8c1.28,4.36,6.99,13.63,3.56,16.62Z"/>
    <path class="cls-3" d="m214.92,115.58c.89,3.71-1.67,8.05-5.74,8.38,0,0-1.24.22-1.24.22-5.28.92-15.23,2.63-20.51,3.55,0,0-.16.03-.16.03-.02,0,.07,0,.1-.02.09-.02.17-.06.23-.1.31-.25.32-.35.31-.58,0-.01-.02-.05,0,.03l.18.61c5.56,18.5,13.87,47.93-12.91,52.95-2.55.5-5.39.72-8,.71-33.78,1.15-29.66-22.54-21.05-46.32,1.56-3.93,7.32-1.73,5.89,2.23-3.25,9-10.58,27.57-2.35,34.87,5.25,4.13,13.33,3.92,19.94,4.01,8.42-.28,16.89-3.49,18.9-12.51,2.38-11.1-1.13-22.7-3.95-33.58-.23-.97-.75-2.15-.65-3.16.04-1.38,1.31-2.94,2.86-3.06,0,0,.62-.1.62-.1,4.96-.76,14.98-2.33,19.94-3.09,0,0,1.25-.19,1.25-.19,2.22-.06,3.51-2.21,3.38-4.4-.16-1.84,2.54-2.27,2.95-.45h0Z"/>
    <path class="cls-3" d="m169.98,177.22c15.08-1.49,20.89-9.17,19.54-24.08-.75-8.37-3.07-16.61-5.46-24.7-.04-.1-.28-.88-.22-1.48.06-1.52,1.18-2.99,2.8-3.23.4-.06,3.31-.57,3.77-.64,4.06-.69,14.68-2.51,18.87-3.22,1.34-.25,2.29-2.31,1.9-3.87,0,0-.32-1.51-.32-1.51l-.63-3.02,2.07,1.73c-1.64-.1-3.33-.6-4.78-1.57-1.45-.95-2.62-2.38-3.29-3.94l2.58,1.36c-1.28.24-2.63.3-3.97.06-4.18-.6-7.56-4.45-7.75-8.64,0,0,2.2,2.2,2.2,2.2-5.76-.21-9.87-5.99-8.72-11.51,0,0,1.28,2.57,1.28,2.57-4.41-2.08-6.09-7.85-4.51-12.2,0,0,1.36,3.03,1.36,3.03-9.5-4.37-20.45-5.74-30.59-2.87-17.4,4.81-29.43,18.12-33.33,35.63-.24,1.66.74,3.47,2.46,3.66,8.26,1.95,16.72,3.18,25.19,3.78,2.55.08,9.67.32,12.33.41,1.5.07,1.44,2.3-.05,2.3,0,0-8.25-.11-8.25-.11-8.29-.02-16.62-.96-24.78-2.39-2.1-.41-4.27-.72-6.32-1.33-2.66-1.01-4.08-4.01-3.76-6.69,1.44-7.03,4.1-13.69,8.03-19.71,12.03-18.01,36.65-26.42,57.04-18.73,0,0,4,1.53,4,1.53,1.24.47,1.8,1.86,1.35,3.07-.59,1.85-.46,3.79.73,5.25.37.45.81.79,1.37,1.08.95.5,1.42,1.55,1.25,2.55-.58,2.99,1.22,5.75,4.31,5.94,1.18.09,2.1,1.05,2.17,2.2.16,3.2,3.09,5,6.15,4.34,1.08-.2,2.12.4,2.52,1.37.67,1.63,2.2,2.67,4.09,2.8,1.02.02,1.88.76,2.07,1.73,0,0,.66,3.29.66,3.29.23,1.16.57,2.54.41,3.77-.21,3.37-2.82,6.59-6.36,6.92-.47.06-1.89.31-2.38.38-5.83.92-13.25,2.1-19.07,3.02-.17.02-.48.08-.64.1.25-.03.55-.24.61-.38.08-.11.09-.21.1-.29.01-.06-.07-.32.05.09,3.27,12.26,7.76,26.37,4.08,39.03-2.93,9.72-12.59,13.77-21.93,13.89-1.91.01-2.08-2.74-.2-2.97h0Z"/>
  </g>
</svg>